<?xml version="1.0" standalone="no"?>
<!DOCTYPE svg PUBLIC "-//W3C//DTD SVG 20010904//EN"
 "http://www.w3.org/TR/2001/REC-SVG-20010904/DTD/svg10.dtd">
<svg version="1.0" xmlns="http://www.w3.org/2000/svg"
 width="225.000000pt" height="225.000000pt" viewBox="0 0 225.000000 225.000000"
 preserveAspectRatio="xMidYMid meet">
<metadata>
Created by potrace 1.11, written by Peter Selinger 2001-2013
</metadata>
<g transform="translate(0.000000,225.000000) scale(0.100000,-0.100000)"
fill="#000000" stroke="none">
<path d="M952 2235 c-235 -51 -328 -190 -348 -520 -11 -190 24 -344 107 -471
106 -163 307 -278 452 -260 72 10 201 74 268 135 158 142 228 335 214 591 -19
333 -114 475 -350 525 -86 18 -259 18 -343 0z m59 -419 c67 -65 140 -95 254
-105 77 -7 186 -1 269 14 l39 8 -6 -119 c-9 -190 -54 -301 -167 -414 -91 -91
-180 -135 -275 -135 -60 0 -80 5 -138 34 -129 65 -234 189 -278 331 -21 69
-36 239 -25 283 15 60 98 126 183 146 74 17 86 14 144 -43z"/>
<path d="M795 1680 c-54 -10 -79 -33 -71 -65 17 -69 35 -132 41 -148 19 -46
131 -68 218 -43 61 18 87 45 111 113 18 53 45 51 63 -4 22 -66 59 -99 126
-113 88 -18 185 5 202 47 6 16 24 79 41 148 3 11 -1 28 -8 38 -30 40 -248 44
-337 6 -54 -23 -58 -23 -112 0 -52 22 -200 33 -274 21z m209 -49 c56 -13 61
-22 46 -76 -23 -82 -107 -122 -195 -93 -46 15 -65 45 -65 105 0 57 24 73 110
73 36 0 82 -5 104 -9z m434 -7 c26 -18 30 -82 9 -124 -30 -59 -156 -63 -212
-7 -34 34 -54 102 -37 119 29 29 204 38 240 12z"/>
<path d="M710 989 c-227 -122 -358 -200 -392 -236 -61 -63 -135 -253 -154
-393 -6 -44 -3 -55 20 -88 79 -114 295 -208 581 -254 108 -17 591 -17 710 0
285 40 511 138 592 255 26 38 27 39 14 115 -15 93 -63 242 -97 299 -13 23 -38
55 -55 72 -40 40 -465 281 -496 281 -8 0 -35 -14 -60 -31 -24 -17 -70 -40
-101 -51 -31 -11 -62 -24 -69 -29 -6 -6 -26 -47 -44 -91 l-33 -82 -28 65 c-48
110 -49 111 -116 136 -34 12 -83 36 -108 52 -25 17 -50 31 -57 31 -7 0 -55
-23 -107 -51z m470 -476 c0 -4 -15 -58 -32 -120 -29 -101 -35 -113 -55 -113
-14 0 -21 5 -18 12 7 22 65 220 65 224 0 2 9 4 20 4 11 0 20 -3 20 -7z m-150
-63 c0 -15 -15 -27 -57 -46 l-58 -25 55 -24 c38 -16 56 -29 58 -44 2 -12 0
-21 -4 -21 -5 0 -43 16 -86 37 -52 24 -78 42 -78 53 0 11 26 29 78 52 92 43
92 43 92 18z m288 -20 c95 -43 94 -56 -6 -103 -43 -21 -81 -37 -86 -37 -4 0
-6 9 -4 21 2 15 20 28 58 44 l55 24 -57 25 c-44 20 -58 31 -58 47 0 13 5 19
13 16 6 -2 45 -19 85 -37z"/>
</g>
</svg>
